<svg width="0" height="0" class="hidden"><symbol fill="" xmlns="http://www.w3.org/2000/svg" viewBox="0 0 32 32" id="facebook"><path d="M13.04 29.333L13 17.666H8V12.666H13V9.33302C13 4.84002 15.787 2.66602 19.8 2.66602C21.72 2.66602 23.373 2.79902 23.853 2.86602V7.57302H21.066C18.893 7.57302 18.466 8.61302 18.466 10.133V12.666H24.666L22.999 17.666H18.466V29.333H13.039H13.04Z" fill=""></path></symbol><symbol fill="" xmlns="http://www.w3.org/2000/svg" viewBox="0 0 50 40" id="logo"><path d="M20.4506 0.259178C19.0919 0.696909 17.9456 1.47652 17.6601 2.15634L17.5398 2.4419L15.6561 2.43301L15.4116 1.93006C15.2253 1.54668 15.063 1.3708 14.7263 1.18701L14.2864 0.945911H11.1062C6.93498 0.945911 6.40895 1.15341 6.40895 2.80355V3.26796L5.69955 3.61478C3.08441 4.8924 1.03538 7.41602 0.225789 10.3546L0.000346207 11.1748V21.2584C0.000346207 32.2698 -0.0327188 31.5584 0.547422 33.1166C1.84798 36.6086 4.86291 39.1352 8.54916 39.8258C9.78859 40.0581 40.2114 40.0581 41.4508 39.8258C45.1371 39.1362 48.152 36.6096 49.4526 33.1166C50.0327 31.5584 49.9997 32.2698 49.9997 21.2584V11.1748L49.7832 10.4031C48.649 6.36468 45.7433 3.61182 41.6342 2.67905C41.02 2.53972 40.2134 2.50514 36.6765 2.46858L32.4532 2.42412L32.3369 2.14745C32.0504 1.46565 30.8209 0.645527 29.4663 0.233488C28.3992 -0.0915987 21.4756 -0.0718366 20.4506 0.259178ZM40.0601 5.82221C43.053 6.12555 45.3856 7.95256 46.3976 10.7874L46.6731 11.5591L46.7012 20.871C46.7332 31.5189 46.7653 31.0218 45.9236 32.7342C44.9758 34.662 43.064 36.1205 40.9288 36.5453C39.7856 36.7726 10.2114 36.7726 9.07118 36.5453C6.91594 36.1145 5.0112 34.6284 4.00923 32.5949C3.24473 31.0426 3.26677 31.4072 3.29883 20.871L3.32689 11.5591L3.63149 10.7163C4.60841 8.01679 6.9961 6.11666 9.77356 5.82912C10.9589 5.7066 38.8517 5.69968 40.0601 5.82122V5.82221ZM9.51706 6.88837C6.37889 7.34191 4.35391 9.89419 4.35391 13.398V14.6954H11.0661L11.2915 14.2369C12.2845 12.2123 14.2844 10.0167 16.4357 8.58692C17.2402 8.05236 19.3614 6.97631 19.6109 6.97631C19.669 6.97631 19.7161 6.93284 19.7161 6.87948C19.7161 6.76091 10.3457 6.76782 9.51706 6.88738V6.88837ZM30.2839 6.85478C30.2839 6.90023 30.4492 6.99509 30.6506 7.06524C33.7206 8.12943 37.462 11.4702 38.7385 14.2863L38.9249 14.6964H45.6471V13.399C45.6471 10.1284 44.1341 7.98418 41.1462 7.01683C40.5581 6.82612 30.2849 6.67395 30.2849 6.85576L30.2839 6.85478ZM24.0707 7.51779C12.6663 8.61558 7.13237 20.9748 14.0931 29.7976C21.7892 39.5512 37.8768 34.7015 38.8858 22.3236C39.5611 14.0343 32.2528 6.73126 24.0707 7.51779ZM26.6638 10.9455C33.2327 11.8753 37.3277 18.963 34.8278 25.0774C31.9482 32.1216 22.708 33.9279 17.4136 28.4804C10.3908 21.2544 16.5819 9.51871 26.6638 10.9455ZM23.8723 12.5719C17.9617 13.395 14.553 19.3474 16.8885 24.7701C19.5698 30.9942 28.5605 31.7659 32.376 26.1001C36.5512 19.9007 31.2949 11.5394 23.8723 12.5719ZM27.7168 13.9098C28.8581 14.2596 29.7118 15.0768 29.7318 15.8366C29.7779 17.5886 26.2289 17.5332 25.0416 15.7635C24.1388 14.4187 25.747 13.3051 27.7168 13.9098ZM22.701 27.2552C23.7821 27.4805 25.3923 28.4557 25.3923 28.8846C25.3923 29.8865 21.7581 29.2393 20.697 28.0486C19.9636 27.2246 20.8564 26.8708 22.701 27.2552ZM41.9128 30.9991C39.8938 31.6167 40.2846 34.3863 42.3897 34.3794C44.5309 34.3725 44.6902 31.2629 42.564 30.9734C42.3486 30.9438 42.056 30.9556 41.9128 31.0001V30.9991Z" fill=""></path></symbol><symbol fill="" xmlns="http://www.w3.org/2000/svg" viewBox="0 0 28 28" id="insta"><path d="M15.36 0.666992C17.76 0.666992 18.267 0.693992 19.493 0.746992C20.906 0.813992 21.88 1.03999 22.72 1.37399C23.6 1.70699 24.347 2.17399 25.08 2.90699C25.827 3.63999 26.28 4.38699 26.627 5.26699C26.96 6.10699 27.174 7.07999 27.24 8.50699C27.307 9.77399 27.32 10.267 27.32 12.934V15.067C27.32 17.734 27.307 18.227 27.24 19.494C27.217 20.659 26.994 21.764 26.604 22.788L26.626 22.721C26.279 23.601 25.826 24.348 25.093 25.081C24.346 25.828 23.6 26.281 22.72 26.628C21.88 26.961 20.907 27.175 19.493 27.241C18.226 27.308 17.72 27.321 15.053 27.321H12.933C10.266 27.321 9.77296 27.308 8.49296 27.241C7.32796 27.218 6.22296 26.995 5.19896 26.605L5.26596 26.627C4.34296 26.274 3.55596 25.753 2.90696 25.094L2.90596 25.093C2.23996 24.441 1.71396 23.649 1.37396 22.764L1.35896 22.719C0.991964 21.763 0.768964 20.657 0.745964 19.502V19.492C0.692964 18.45 0.662964 17.229 0.662964 16.002C0.662964 15.776 0.663964 15.55 0.665964 15.325V15.359V12.626C0.665964 10.226 0.692964 9.71899 0.745964 8.49299C0.812964 7.07999 1.03896 6.10599 1.35896 5.26599C1.70596 4.38599 2.15896 3.63899 2.90596 2.90599C3.55096 2.23899 4.33996 1.71599 5.22296 1.38699L5.26596 1.37299C6.22096 1.00199 7.32596 0.773992 8.48096 0.746992H8.49296C9.71996 0.693992 10.226 0.666992 12.626 0.666992H15.36ZM15.387 3.06699H12.6C10.293 3.06699 9.79996 3.09399 8.59996 3.14699C7.30696 3.19999 6.59996 3.41399 6.13296 3.59999C5.50596 3.83999 5.06596 4.13299 4.59996 4.59999C4.13396 5.06699 3.83996 5.50699 3.59996 6.13299C3.42696 6.59999 3.19996 7.30599 3.14696 8.61299C3.09396 9.81299 3.06696 10.293 3.06696 12.613V15.386C3.06696 17.706 3.09396 18.186 3.14696 19.386C3.19996 20.679 3.41396 21.386 3.59996 21.853C3.83996 22.48 4.13296 22.92 4.59996 23.386C5.06696 23.852 5.50696 24.146 6.13296 24.386C6.59996 24.573 7.30596 24.786 8.61296 24.839C9.90596 24.906 10.373 24.919 13.253 24.919H14.733C17.626 24.919 18.08 24.906 19.386 24.839C20.679 24.786 21.386 24.572 21.853 24.386C22.48 24.146 22.92 23.853 23.386 23.386C23.852 22.919 24.146 22.479 24.386 21.853C24.573 21.386 24.786 20.68 24.839 19.386C24.906 18.079 24.919 17.626 24.919 14.733V13.266C24.919 10.373 24.906 9.90599 24.839 8.59899C24.786 7.30599 24.572 6.59899 24.386 6.13199C24.16 5.53099 23.819 5.01799 23.387 4.59999L23.386 4.59899C22.966 4.16599 22.454 3.82499 21.881 3.60799L21.853 3.59899C21.121 3.32299 20.275 3.15799 19.391 3.14599H19.386C18.358 3.09399 17.155 3.06399 15.944 3.06399C15.748 3.06399 15.552 3.06499 15.356 3.06599H15.386L15.387 3.06699ZM14 7.14699C17.781 7.14699 20.847 10.212 20.847 13.994C20.847 17.776 17.782 20.841 14 20.841C10.219 20.841 7.15296 17.776 7.15296 13.994C7.15296 10.212 10.218 7.14699 14 7.14699ZM14 9.54699C11.544 9.54699 9.55296 11.538 9.55296 13.994C9.55296 16.45 11.544 18.441 14 18.441C16.456 18.441 18.447 16.45 18.447 13.994C18.447 11.538 16.456 9.54699 14 9.54699ZM21.107 5.27999C21.991 5.27999 22.707 5.99599 22.707 6.87999C22.707 7.76399 21.991 8.47999 21.107 8.47999C20.223 8.47999 19.507 7.76399 19.507 6.87999C19.507 5.99599 20.223 5.27999 21.107 5.27999Z" fill=""></path></symbol><symbol fill="" xmlns="http://www.w3.org/2000/svg" viewBox="0 0 32 32" id="pint"><path d="M16 2.66699C8.65699 2.69399 2.71399 8.65299 2.71399 16C2.71399 21.599 6.16599 26.393 11.057 28.368L11.146 28.4C11.013 27.347 10.919 25.733 11.186 24.573L12.746 17.946C12.746 17.946 12.346 17.146 12.346 15.973C12.346 14.12 13.426 12.746 14.773 12.746C15.906 12.746 16.466 13.599 16.466 14.613C16.466 15.76 15.733 17.466 15.346 19.053C15.026 20.386 16.013 21.466 17.333 21.466C19.706 21.466 21.52 18.973 21.52 15.373C21.52 12.173 19.227 9.95999 15.947 9.95999C15.871 9.95599 15.783 9.95399 15.694 9.95399C12.505 9.95399 9.92099 12.539 9.92099 15.727C9.92099 15.729 9.92099 15.731 9.92099 15.733C9.92099 16.88 10.361 18.106 10.908 18.773C11.015 18.906 11.028 19.026 10.988 19.16L10.615 20.667C10.562 20.907 10.415 20.974 10.175 20.854C8.49499 20.067 7.45499 17.654 7.45499 15.681C7.45499 11.481 10.522 7.62799 16.282 7.62799C20.895 7.62799 24.509 10.908 24.509 15.321C24.509 19.921 21.602 23.614 17.576 23.614C16.243 23.614 14.963 22.907 14.536 22.081L13.696 25.241C13.265 26.578 12.704 27.739 12.008 28.804L12.042 28.748C13.212 29.12 14.558 29.335 15.953 29.335C23.317 29.335 29.286 23.365 29.286 16.002C29.286 8.65499 23.344 2.69599 16.004 2.66899H16.001L16 2.66699Z" fill=""></path></symbol><symbol fill="" xmlns="http://www.w3.org/2000/svg" viewBox="0 0 32 32" id="twit"><path d="M29.333 7.83998C28.333 8.33298 27.333 8.50698 26.16 8.66698C27.333 7.99998 28.16 6.99998 28.493 5.66698C27.488 6.27498 26.317 6.73798 25.07 6.98898L25 7.00098C23.969 5.98698 22.56 5.35498 21.004 5.33398H21C18.16 5.33398 15.667 7.84098 15.667 10.841C15.667 11.334 15.667 11.668 15.84 12.001C11.262 11.823 7.22097 9.66398 4.52897 6.36198L4.50697 6.33398C4.08197 7.05998 3.83097 7.93198 3.83097 8.86298C3.83097 8.97198 3.83397 9.08098 3.84097 9.18898L3.83997 9.17398C3.87397 11.052 4.84897 12.695 6.31297 13.655L6.33397 13.668C5.49397 13.668 4.66697 13.335 3.82697 13.001C3.82697 15.668 5.66697 17.841 8.15997 18.334C7.66697 18.507 7.15997 18.507 6.66697 18.507C6.33397 18.507 5.99997 18.507 5.66697 18.334C6.33397 20.507 8.33397 22.174 10.84 22.174C9.03997 23.629 6.72397 24.509 4.20297 24.509C4.13197 24.509 4.06097 24.508 3.98997 24.507H4.00097H2.66797C5.03297 26.016 7.90397 26.936 10.984 27H11.001C21.001 27 26.508 18.667 26.508 11.493V10.826C27.655 10.036 28.601 9.03898 29.311 7.88198L29.335 7.83998H29.333Z" fill=""></path></symbol></svg>